<?xml version="1.0" encoding="UTF-8" standalone="no"?>
<!-- Created with Inkscape (http://www.inkscape.org/) -->

<svg
   xmlns:dc="http://purl.org/dc/elements/1.1/"
   xmlns:cc="http://creativecommons.org/ns#"
   xmlns:rdf="http://www.w3.org/1999/02/22-rdf-syntax-ns#"
   xmlns:svg="http://www.w3.org/2000/svg"
   xmlns="http://www.w3.org/2000/svg"
   xmlns:xlink="http://www.w3.org/1999/xlink"
   xmlns:sodipodi="http://sodipodi.sourceforge.net/DTD/sodipodi-0.dtd"
   xmlns:inkscape="http://www.inkscape.org/namespaces/inkscape"
   width="450"
   height="50"
   id="svg2"
   version="1.1"
   inkscape:version="0.48.5 r10040"
   sodipodi:docname="bg.svg"
   inkscape:export-filename="C:\Users\smiejtom\Desktop\Apps\workspace\workload\ui\bg.png"
   inkscape:export-xdpi="90"
   inkscape:export-ydpi="90">
  <defs
     id="defs4" />
  <sodipodi:namedview
     id="base"
     pagecolor="#ffffff"
     bordercolor="#666666"
     borderopacity="1.0"
     inkscape:pageopacity="0"
     inkscape:pageshadow="2"
     inkscape:zoom="11.2"
     inkscape:cx="14.727854"
     inkscape:cy="25.820061"
     inkscape:document-units="px"
     inkscape:current-layer="layer3"
     showgrid="false"
     showborder="true"
     borderlayer="false"
     inkscape:window-width="1680"
     inkscape:window-height="998"
     inkscape:window-x="-8"
     inkscape:window-y="-8"
     inkscape:window-maximized="1"
     inkscape:object-paths="false"
     inkscape:snap-global="true"
     inkscape:snap-grids="false"
     showguides="true"
     inkscape:guide-bbox="true">
    <inkscape:grid
       type="xygrid"
       id="grid2993"
       empspacing="5"
       visible="true"
       enabled="true"
       snapvisiblegridlinesonly="true" />
  </sodipodi:namedview>
  <metadata
     id="metadata7">
    <rdf:RDF>
      <cc:Work
         rdf:about="">
        <dc:format>image/svg+xml</dc:format>
        <dc:type
           rdf:resource="http://purl.org/dc/dcmitype/StillImage" />
        <dc:title></dc:title>
      </cc:Work>
    </rdf:RDF>
  </metadata>
  <g
     inkscape:label="Layer 1"
     inkscape:groupmode="layer"
     id="layer1"
     transform="translate(0,-1002.3622)"
     style="display:inline">
    <path
       transform="translate(-3.661803,2.6516504)"
       style="fill:#000000;fill-opacity:1;fill-rule:nonzero;stroke:none"
       d="m 62.28125,1004.5938 c -0.764149,-0.035 -1.801554,-0.054 -3.03125,0.094 -2.459391,0.2962 -5.683499,1.2837 -9,4.0313 -0.03225,0.019 -0.06355,0.04 -0.09375,0.062 -1.581962,1.5667 -1.959303,3.5135 -1.90625,5.2188 0.05195,1.6698 0.447839,3.1927 0.5,4.3438 -0.0012,0.027 0.0012,0.036 0,0.062 3.04e-4,0.01 -2.7e-4,0.023 0,0.031 -0.168548,3.8628 0.02469,5.0283 -1,9.7813 -1.011617,3.1258 -1.660205,4.8842 -2.3125,6.0937 -0.637976,1.183 -1.270439,1.9064 -2.4375,3.0625 -0.0077,0.01 -0.02355,-0.01 -0.03125,0 -0.486713,0.3849 -0.962162,0.5597 -1.46875,0.875 0.102071,-0.2433 0.156874,-0.4149 0.28125,-0.6875 0.01171,-0.022 0.01972,-0.041 0.03125,-0.062 1.574504,-2.9791 1.492372,-5.9217 0.125,-8.0625 -0.280135,-0.4244 -0.867503,-0.6155 -1.34375,-0.4372 -3.710985,1.3069 -4.811581,1.7642 -7.3125,3.5625 -0.03225,0.019 -0.06355,0.04 -0.09375,0.062 -0.806622,0.7029 -1.414461,0.7571 -1.5625,0.7188 -0.07402,-0.019 -0.09098,-0.037 -0.125,-0.094 -0.03192,-0.054 -0.07509,-0.1992 -0.0625,-0.4688 8.26e-4,-0.018 -0.0014,-0.012 0,-0.031 0.136359,-1.0609 0.88327,-1.9358 2.03125,-2.9062 1.148023,-0.9705 2.610696,-1.9239 3.75,-3.2188 0.011,-0.011 0.02032,-0.02 0.03125,-0.031 2.955846,-3.0296 3.417692,-6.6801 2.90625,-10.5938 -0.0067,-0.053 -0.01719,-0.105 -0.03125,-0.1562 -1.099851,-3.9036 -4.121607,-5.5248 -6.903395,-6.9363 -0.02002,-0.021 -0.719566,-0.3419 -0.741196,-0.3619 -2.32673,-0.9457 -4.106661,-1.4925 -5.319446,-2.0736 -1.212785,-0.581 -2.120692,-0.8875 -2.993028,-1.2598 -0.5755,-0.2708 -1.116699,-0.6264 -1.317683,-0.5322 -0.192321,0.09 -0.415159,2.3735 -0.490877,2.8353 -0.151435,0.9236 -0.161431,2.0895 -0.270089,3.7622 -0.03965,0.6103 -0.02765,1.1457 0.18006,1.6757 0.207707,0.5299 0.626394,0.9824 1.050347,1.2329 1.122793,0.6639 2.212839,0.6361 3.72123,1.3595 0.0197,0.011 0.03971,0.021 0.06002,0.031 0.322374,0.1315 0.907968,0.361 1.470486,0.6956 0.562517,0.3345 1.367771,0.8009 1.486607,1.0312 0.491044,0.9516 0.967319,1.1501 1.004464,1.6652 0.03714,0.515 -0.136836,1.4219 -0.9375,3.25 -0.573345,1.309 -1.441384,2.154 -2.46875,3.0937 -1.027366,0.9397 -2.236198,1.9685 -3.15625,3.5937 -0.02467,0.051 -0.04558,0.1027 -0.0625,0.1563 -0.784805,1.9706 -0.01909,4.2166 0.875,6.4063 0.894088,2.1896 2.087939,4.272 2.875,5.4687 0.855957,1.2391 0.594837,1.0845 1.562817,0.4384 0.812529,-0.4931 2.711501,-1.4247 4.437183,-2.1884 -0.02995,0.054 -0.02966,0.1992 -0.0625,0.25 -0.298125,0.4612 -0.892293,0.9588 -1.8125,1.8125 -0.0134,0.01 -0.01789,0.023 -0.03125,0.031 -3.487084,2.2418 -6.51646,2.7976 -10.728268,2.0411 -0.992305,-0.2235 -1.414278,-0.3606 -2.738522,-0.8889 0.994767,1.3151 2.148636,2.0571 3.266588,2.7021 0.763798,0.4078 2.145879,0.7988 3.106452,1.0207 1.319033,0.2853 3.641284,0.659 5.03125,0.625 0.0085,-2e-4 0.02279,3e-4 0.03125,0 6.268255,0.075 13.262549,-0.087 18.84375,-3.4374 0.01346,-0.01 0.01783,-0.023 0.03125,-0.031 6.278278,-3.6926 8.282742,-10.6366 8.53125,-16.0625 6.68e-4,-0.01 -6.37e-4,-0.023 0,-0.031 0.115256,-1.5805 -0.286454,-3.4888 -0.71875,-5.5626 -0.434685,-2.0852 -0.920949,-4.2857 -1.09375,-6.0937 1.41e-4,-0.01 1.41e-4,-0.021 0,-0.031 -0.128047,-1.0908 0.946936,-2.9258 2.71875,-4.625 1.771814,-1.6991 4.067556,-3.2749 5.65625,-4.1874 0.440202,-0.2985 1.689292,-0.8674 3.518293,-1.1609 0.525131,-0.084 -3.943067,-1.0117 -4.455793,-0.8704 0.260602,-0.09 0.115005,-0.024 -0.09375,-0.031 -0.208755,-0.01 -0.524176,-0.045 -0.90625,-0.062 z"
       id="path4245"
       inkscape:connector-curvature="0"
       sodipodi:nodetypes="ccccscccccccccccccccccccccccccccscssccccsscscccccccccccccccccccsccccscccc"
       inkscape:export-xdpi="90"
       inkscape:export-ydpi="90" />
    <path
       style="fill:#ffffff"
       d="m 26.386391,1036.1274 c 0.18451,0.9652 0.929692,1.502 1.863828,1.4539 0.834251,-0.063 1.49931,-0.5206 2.141126,-0.858 0.929373,-0.7019 3.627548,-2.5265 5.660281,-3.3792 1.227072,-0.463 0.806509,-0.3125 1.206931,-0.4155 0.367099,0.5854 0.667106,1.403 0.724405,1.8991 0.191813,1.6909 -0.150437,2.6682 -0.513528,3.6588 -0.962297,1.9748 -0.977821,2.8325 -1.558506,2.1036 0.779586,-1.4723 1.297671,-4.2229 1.083914,-5.7321 -0.08246,-0.3796 -0.137205,-0.7067 -0.267731,-0.944 -0.298153,0.136 -1.035195,0.4731 -1.642555,0.7712 -0.574995,0.242 -1.388955,0.8059 -1.89759,1.1224 -1.522708,0.9892 -3.013684,2.3475 -4.634912,2.6358 -0.769683,0.1048 -2.378845,-0.3275 -2.554194,-1.5278 0.108506,-1.0708 0.313102,-1.0358 0.372747,-1.3404 z"
       id="path3423"
       inkscape:connector-curvature="0"
       sodipodi:nodetypes="cccccccccccccccc" />
    <path
       sodipodi:type="inkscape:offset"
       inkscape:radius="0"
       inkscape:original="M 62.25 1005.7812 C 60.330854 1005.6759 58.207165 1005.9383 56.53125 1006.5 C 54.442124 1007.2002 52.04513 1008.6232 50.84375 1009.8438 C 50.292352 1010.404 49.723216 1011.4799 49.5625 1012.2812 C 49.399133 1013.0958 49.434646 1014.6536 49.65625 1016.125 C 49.821821 1017.2243 49.85679 1017.8173 49.84375 1019.3125 C 49.801775 1024.1242 49.383184 1027.0999 48.28125 1030.3438 C 46.931522 1034.317 46.30266 1035.5632 44.625 1037.4062 C 43.858482 1038.2483 43.095939 1038.8467 41.8125 1039.625 C 40.902552 1040.1767 38.84375 1041.21 38.84375 1041.125 C 38.84375 1041.0954 38.93933 1040.9742 39.03125 1040.8438 C 39.294416 1040.4706 39.637049 1039.713 39.96875 1038.8438 C 40.32555 1037.9088 40.323293 1037.8861 40.09375 1038.0938 C 39.90555 1038.2647 39.67545 1038.2441 39.59375 1038.0312 C 39.566048 1037.959 39.661623 1037.5706 39.8125 1037.1875 C 40.309448 1035.9254 40.624375 1034.3479 40.625 1033.0938 C 40.625366 1032.3467 40.506599 1031.4872 40.375 1031.4062 C 40.186791 1031.2899 38.002821 1032.4567 36.46875 1033.5 C 33.441767 1035.5587 32.769795 1035.8995 31.6875 1035.8125 C 30.761439 1035.7381 29.844182 1035.1555 29.6875 1034.5312 C 29.601276 1034.1878 29.694681 1033.5621 29.90625 1033.125 C 30.011921 1032.9067 30.15355 1032.5327 30.21875 1032.2812 C 30.380234 1031.6588 31.085428 1030.5124 31.78125 1029.75 C 32.097823 1029.4031 33.023259 1028.5394 33.8125 1027.8438 C 35.622984 1026.2481 36.130491 1025.7206 36.875 1024.7188 C 37.893099 1023.3487 38.497233 1022.1815 38.90625 1020.75 C 39.131654 1019.9611 39.13813 1019.8353 39.09375 1018.5625 C 39.057102 1017.5113 38.991537 1016.9986 38.8125 1016.3125 C 38.525929 1015.2143 38.017163 1014.1411 37.46875 1013.5 C 36.299971 1012.1338 34.083847 1010.633 31.84375 1009.6875 C 31.299582 1009.4578 30.089286 1008.9094 29.15625 1008.4688 C 26.198375 1007.0722 25.230951 1006.7188 24.5 1006.7188 C 23.861581 1006.7188 23.779977 1007.0659 23.59375 1009.5625 C 23.460773 1011.3453 23.480691 1012.1712 23.71875 1012.5 C 23.838458 1012.6654 24.060435 1012.8314 24.40625 1013 C 24.757765 1013.1713 25.237823 1013.3304 25.8125 1013.5 C 27.84972 1014.1011 29.838016 1015.055 30.65625 1015.8125 C 31.355999 1016.4604 32.12922 1017.9698 32.21875 1018.875 C 32.288744 1019.5828 32.035227 1020.5833 31.5 1021.9375 C 30.735459 1023.872 30.384188 1024.3331 27.59375 1027.0312 C 27.469934 1027.1509 27.366084 1027.2879 27.25 1027.4062 C 26.328453 1028.3456 25.647207 1029.2243 25.46875 1029.75 C 25.326579 1030.1688 25.343558 1031.3073 25.5 1032.125 C 25.770313 1033.5378 26.573787 1035.5733 27.71875 1037.75 C 28.28641 1038.8292 29.09023 1040.1875 29.15625 1040.1875 C 29.172044 1040.1875 29.674416 1039.9413 30.28125 1039.625 C 31.196503 1039.1479 35.634146 1037.1562 35.78125 1037.1562 C 35.866273 1037.1562 35.819766 1037.7744 35.6875 1038.4688 C 35.469078 1039.6152 35.137161 1040.2026 34.0625 1041.25 C 32.535192 1042.7386 30.450863 1043.7945 28.28125 1044.2188 C 27.210115 1044.4277 25.267248 1044.4682 24.03125 1044.2812 C 22.347186 1044.0265 22.340361 1044.0094 22.59375 1044.1562 C 23.437025 1044.6453 26.915129 1045.41 29.03125 1045.5625 C 31.179623 1045.7175 35.78025 1045.5812 38.375 1045.3125 C 41.88939 1044.9484 44.755311 1044.2246 47.125 1043.0625 C 48.351428 1042.461 49.214173 1041.8548 49.375 1041.625 C 49.267243 1041.6798 49.55969 1041.328 50.03125 1040.8438 C 50.976 1039.8736 51.453155 1039.2634 52.125 1038.1875 C 53.559703 1035.89 54.228382 1034.027 54.6875 1030.9062 C 54.830824 1029.9321 54.808644 1025.758 54.65625 1021.1875 C 54.533335 1017.5011 54.570095 1015.1857 54.78125 1014.375 C 55.252651 1012.5652 57.025315 1010.4274 60 1008.125 C 60.631517 1007.6362 62.576915 1006.301 63.1875 1005.9375 C 63.316564 1005.8609 63.121596 1005.8293 62.25 1005.7812 z M 49.375 1041.625 C 49.40373 1041.5839 49.832211 1041.375 49.78125 1041.375 C 49.724518 1041.375 49.65519 1041.3885 49.625 1041.4375 C 49.594813 1041.4863 49.482756 1041.57 49.375 1041.625 z M 58.46875 1006.4688 C 58.587264 1006.4939 58.36882 1006.6027 57.75 1006.8125 L 57.125 1007.0312 L 57.59375 1007.0938 C 57.867591 1007.1227 57.966518 1007.1463 57.8125 1007.1562 C 57.141626 1007.1916 55.76562 1007.8264 54.8125 1008.5312 C 53.91921 1009.192 52.85001 1010.3633 52.53125 1011.0312 C 52.1952 1011.7354 51.72071 1013.7611 51.65625 1014.75 C 51.609099 1015.4733 51.648674 1016.5039 51.9375 1019.8125 C 52.03837 1020.9681 52.06427 1021.9913 52.03125 1023.5 C 51.990992 1025.3393 51.955084 1025.725 51.75 1026.625 C 51.437303 1027.9974 50.925914 1029.2645 50.4375 1029.8125 C 50.130919 1030.1564 49.163641 1030.0279 49.0625 1029.625 C 49.032149 1029.504 49.156538 1029.0486 49.34375 1028.5 C 49.72104 1027.3943 50.246579 1024.5815 50.375 1023 C 50.54359 1020.9238 50.479125 1019.4515 50.09375 1015.9062 C 49.81121 1013.3071 49.897772 1012.1215 50.46875 1010.9375 C 50.857959 1010.1304 51.434307 1009.5959 52.75 1008.7188 C 54.936195 1007.2614 55.43784 1007.0241 57.0625 1006.6875 C 57.876053 1006.519 58.350236 1006.4436 58.46875 1006.4688 z M 25.28125 1007.4375 C 25.335234 1007.4375 25.689082 1007.5947 26.09375 1007.8125 C 26.498417 1008.0302 27.118303 1008.3182 27.4375 1008.4375 C 27.756696 1008.5567 28.332819 1008.8215 28.75 1009.0312 C 29.167181 1009.241 30.151556 1009.6845 30.9375 1010 C 32.641829 1010.6842 35.069113 1011.9472 35.71875 1012.5 C 36.335188 1013.0245 37.264077 1014.1912 37.65625 1014.9375 C 37.829521 1015.2672 38.084226 1015.9216 38.21875 1016.4062 C 38.435531 1017.1872 38.4424 1017.4462 38.4375 1018.5938 C 38.432171 1019.8347 38.426515 1019.9307 38.15625 1020.5938 C 37.704203 1021.7027 37.073223 1022.8955 36.65625 1023.4375 C 36.228341 1023.9937 34.466251 1025.7556 34.09375 1026 C 33.963305 1026.0856 33.54705 1026.4675 33.1875 1026.8438 C 32.537869 1027.5235 32.528575 1027.514 32.09375 1027.5 C 31.429484 1027.4783 31.09375 1027.4278 31.09375 1027.3438 C 31.09375 1027.1712 31.909922 1026.3054 33 1025.3438 C 34.746046 1023.8034 35.347706 1023.0564 36.125 1021.4375 C 36.690391 1020.2599 36.8732 1019.5402 36.875 1018.5938 C 36.878335 1016.8862 36.336136 1015.306 35.21875 1013.875 C 34.155558 1012.5135 33.770157 1012.2714 30.5 1010.9062 C 28.518336 1010.0789 26.5041 1009.1967 25.3125 1008.625 C 24.799384 1008.3788 24.65625 1008.2806 24.65625 1008.125 C 24.65625 1007.9256 25.101899 1007.4375 25.28125 1007.4375 z "
       xlink:href="#path3455"
       style="fill:#ffffff"
       id="path3461"
       inkscape:href="#path3455"
       d="m 62.25,1005.7812 c -1.919146,-0.1053 -4.042835,0.1571 -5.71875,0.7188 -2.089126,0.7002 -4.48612,2.1232 -5.6875,3.3438 -0.551398,0.5602 -1.120534,1.6361 -1.28125,2.4374 -0.163367,0.8146 -0.127854,2.3724 0.09375,3.8438 0.165571,1.0993 0.20054,1.6923 0.1875,3.1875 -0.04198,4.8117 -0.460566,7.7874 -1.5625,11.0313 -1.349728,3.9732 -1.97859,5.2194 -3.65625,7.0624 -0.766518,0.8421 -1.529061,1.4405 -2.8125,2.2188 -0.909948,0.5517 -2.96875,1.585 -2.96875,1.5 0,-0.03 0.09558,-0.1508 0.1875,-0.2812 0.263166,-0.3732 0.605799,-1.1308 0.9375,-2 0.3568,-0.935 0.354543,-0.9577 0.125,-0.75 -0.1882,0.1709 -0.4183,0.1503 -0.5,-0.063 -0.0277,-0.072 0.06787,-0.4606 0.21875,-0.8437 0.496948,-1.2621 0.811875,-2.8396 0.8125,-4.0937 3.66e-4,-0.7471 -0.118401,-1.6066 -0.25,-1.6876 -0.188209,-0.1163 -2.372179,1.0505 -3.90625,2.0938 -3.026983,2.0587 -3.698955,2.3995 -4.78125,2.3125 -0.926061,-0.074 -1.843318,-0.657 -2,-1.2813 -0.08622,-0.3434 0.0072,-0.9691 0.21875,-1.4062 0.105671,-0.2183 0.2473,-0.5923 0.3125,-0.8438 0.161484,-0.6224 0.866678,-1.7688 1.5625,-2.5312 0.316573,-0.3469 1.242009,-1.2106 2.03125,-1.9062 1.810484,-1.5957 2.317991,-2.1232 3.0625,-3.125 1.018099,-1.3701 1.622233,-2.5373 2.03125,-3.9688 0.225404,-0.7889 0.23188,-0.9147 0.1875,-2.1875 -0.03665,-1.0512 -0.102213,-1.5639 -0.28125,-2.25 -0.286571,-1.0982 -0.795337,-2.1714 -1.34375,-2.8125 -1.168779,-1.3662 -3.384903,-2.867 -5.625,-3.8125 -0.544168,-0.2297 -1.754464,-0.7781 -2.6875,-1.2187 -2.957875,-1.3966 -3.925299,-1.75 -4.65625,-1.75 -0.638419,0 -0.720023,0.3471 -0.90625,2.8437 -0.132977,1.7828 -0.113059,2.6087 0.125,2.9375 0.119708,0.1654 0.341685,0.3314 0.6875,0.5 0.351515,0.1713 0.831573,0.3304 1.40625,0.5 2.03722,0.6011 4.025516,1.555 4.84375,2.3125 0.699749,0.6479 1.47297,2.1573 1.5625,3.0625 0.06999,0.7078 -0.183523,1.7083 -0.71875,3.0625 -0.764541,1.9345 -1.115812,2.3956 -3.90625,5.0937 -0.123816,0.1197 -0.227666,0.2567 -0.34375,0.375 -0.921547,0.9394 -1.602793,1.8181 -1.78125,2.3438 -0.142171,0.4188 -0.125192,1.5573 0.03125,2.375 0.270313,1.4128 1.073787,3.4483 2.21875,5.625 0.56766,1.0792 1.37148,2.4375 1.4375,2.4375 0.01579,0 0.518166,-0.2462 1.125,-0.5625 0.915253,-0.4771 5.352896,-2.4688 5.5,-2.4688 0.08502,0 0.03852,0.6182 -0.09375,1.3126 -0.218422,1.1464 -0.550339,1.7338 -1.625,2.7812 -1.527308,1.4886 -3.611637,2.5445 -5.78125,2.9688 -1.071135,0.2089 -3.014002,0.2494 -4.25,0.062 -1.684064,-0.2547 -1.690889,-0.2718 -1.4375,-0.125 0.843275,0.4891 4.321379,1.2538 6.4375,1.4063 2.148373,0.155 6.749,0.019 9.34375,-0.25 3.51439,-0.3641 6.380311,-1.0879 8.75,-2.25 1.226428,-0.6015 2.089173,-1.2077 2.25,-1.4375 -0.107757,0.055 0.18469,-0.297 0.65625,-0.7812 0.94475,-0.9702 1.421905,-1.5804 2.09375,-2.6563 1.434703,-2.2975 2.103382,-4.1605 2.5625,-7.2813 0.143324,-0.9741 0.121144,-5.1482 -0.03125,-9.7187 -0.122915,-3.6864 -0.08615,-6.0018 0.125,-6.8125 0.471401,-1.8098 2.244065,-3.9476 5.21875,-6.25 0.631517,-0.4888 2.576915,-1.824 3.1875,-2.1875 0.129064,-0.077 -0.0659,-0.1082 -0.9375,-0.1563 z m -12.875,35.8438 c 0.02873,-0.041 0.457211,-0.25 0.40625,-0.25 -0.05673,0 -0.12606,0.014 -0.15625,0.062 -0.03019,0.049 -0.142244,0.1325 -0.25,0.1875 z m 9.09375,-35.1562 c 0.118514,0.025 -0.09993,0.1339 -0.71875,0.3437 l -0.625,0.2187 0.46875,0.063 c 0.273841,0.029 0.372768,0.053 0.21875,0.062 -0.670874,0.035 -2.04688,0.6702 -3,1.375 -0.89329,0.6608 -1.96249,1.8321 -2.28125,2.5 -0.33605,0.7042 -0.81054,2.7299 -0.875,3.7188 -0.04715,0.7233 -0.0076,1.7539 0.28125,5.0625 0.10087,1.1556 0.12677,2.1788 0.09375,3.6875 -0.04026,1.8393 -0.07617,2.225 -0.28125,3.125 -0.312697,1.3724 -0.824086,2.6395 -1.3125,3.1875 -0.306581,0.3439 -1.273859,0.2154 -1.375,-0.1875 -0.03035,-0.121 0.09404,-0.5764 0.28125,-1.125 0.37729,-1.1057 0.902829,-3.9185 1.03125,-5.5 0.16859,-2.0762 0.104125,-3.5485 -0.28125,-7.0938 -0.28254,-2.5991 -0.195978,-3.7847 0.375,-4.9687 0.389209,-0.8071 0.965557,-1.3416 2.28125,-2.2187 2.186195,-1.4574 2.68784,-1.6947 4.3125,-2.0313 0.813553,-0.1685 1.287736,-0.2439 1.40625,-0.2187 z m -33.1875,0.9687 c 0.05398,0 0.407832,0.1572 0.8125,0.375 0.404667,0.2177 1.024553,0.5057 1.34375,0.625 0.319196,0.1192 0.895319,0.384 1.3125,0.5937 0.417181,0.2098 1.401556,0.6533 2.1875,0.9688 1.704329,0.6842 4.131613,1.9472 4.78125,2.5 0.616438,0.5245 1.545327,1.6912 1.9375,2.4375 0.173271,0.3297 0.427976,0.9841 0.5625,1.4687 0.216781,0.781 0.22365,1.04 0.21875,2.1876 -0.0053,1.2409 -0.01098,1.3369 -0.28125,2 -0.452047,1.1089 -1.083027,2.3017 -1.5,2.8437 -0.427909,0.5562 -2.189999,2.3181 -2.5625,2.5625 -0.130445,0.086 -0.5467,0.4675 -0.90625,0.8438 -0.649631,0.6797 -0.658925,0.6702 -1.09375,0.6562 -0.664266,-0.022 -1,-0.072 -1,-0.1562 0,-0.1726 0.816172,-1.0384 1.90625,-2 1.746046,-1.5404 2.347706,-2.2874 3.125,-3.9063 0.565391,-1.1776 0.7482,-1.8973 0.75,-2.8437 0.0033,-1.7076 -0.538864,-3.2878 -1.65625,-4.7188 -1.063192,-1.3615 -1.448593,-1.6036 -4.71875,-2.9688 -1.981664,-0.8273 -3.9959,-1.7095 -5.1875,-2.2812 -0.513116,-0.2462 -0.65625,-0.3444 -0.65625,-0.5 0,-0.1994 0.445649,-0.6875 0.625,-0.6875 z"
       transform="translate(-3.661803,2.6516504)" />
    <path
       transform="translate(-3.661803,2.6516504)"
       style="fill:#ffffff"
       d="m 61.53125,1005.7812 c -1.711944,-0.013 -3.537482,0.2599 -5,0.75 -2.084186,0.6986 -4.460553,2.129 -5.65625,3.3438 -0.545309,0.554 -1.122163,1.6132 -1.28125,2.4062 -0.16179,0.8069 -0.127469,2.375 0.09375,3.8438 0.165712,1.1002 0.200545,1.6918 0.1875,3.1875 -0.04199,4.8133 -0.459538,7.7842 -1.5625,11.0313 -1.350019,3.9739 -1.976616,5.2486 -3.65625,7.0937 -0.76838,0.8442 -1.559018,1.4397 -2.84375,2.2187 -0.456417,0.2768 -1.183563,0.6519 -1.8125,0.9688 -0.314469,0.1585 -0.604596,0.3124 -0.8125,0.4062 -0.103952,0.047 -0.190563,0.072 -0.25,0.094 -0.02972,0.011 -0.04414,0.028 -0.0625,0.031 -0.0092,0 -0.02103,0 -0.03125,0 -7.4e-4,-2e-4 -0.03075,4e-4 -0.03125,0 -4.97e-4,-3e-4 2.5e-4,-0.031 0,-0.031 0,-0.023 0.0201,-0.044 0.03125,-0.062 0.01115,-0.019 0.01336,-0.037 0.03125,-0.062 0.03578,-0.051 0.07933,-0.1227 0.125,-0.1875 0.259304,-0.3677 0.606173,-1.1006 0.9375,-1.9687 0.178365,-0.4675 0.267473,-0.7258 0.28125,-0.8126 -0.01742,0.01 -0.03658,0.042 -0.09375,0.094 -0.09893,0.09 -0.210847,0.1366 -0.3125,0.125 -0.101653,-0.012 -0.205965,-0.104 -0.25,-0.2188 -0.01211,-0.031 -0.0077,-0.071 0,-0.125 0.0077,-0.054 0.01142,-0.1097 0.03125,-0.1874 0.03966,-0.1555 0.111597,-0.3386 0.1875,-0.5313 0.495444,-1.2583 0.811877,-2.8446 0.8125,-4.0937 1.82e-4,-0.3721 -0.01665,-0.7771 -0.0625,-1.0938 -0.02293,-0.1583 -0.06471,-0.3047 -0.09375,-0.4062 -0.01452,-0.051 -0.01656,-0.095 -0.03125,-0.125 -0.01469,-0.03 -0.0238,-0.027 -0.03125,-0.031 -0.0017,0 -0.0387,0 -0.0625,0 -0.0238,0 -0.05446,-0.011 -0.09375,0 -0.07858,0.022 -0.185576,0.071 -0.3125,0.125 -0.253848,0.1088 -0.588594,0.2652 -0.96875,0.4687 -0.760313,0.4071 -1.671612,0.9792 -2.4375,1.5 -1.513704,1.0295 -2.440222,1.6356 -3.125,1.9688 -0.684778,0.3332 -1.142823,0.3875 -1.6875,0.3438 -0.468346,-0.038 -0.943668,-0.2019 -1.3125,-0.4376 -0.368832,-0.2356 -0.637647,-0.5517 -0.71875,-0.875 -0.08949,-0.3563 0.0039,-0.9623 0.21875,-1.4062 0.104427,-0.2157 0.248117,-0.5953 0.3125,-0.8438 0.164496,-0.6339 0.863462,-1.7965 1.5625,-2.5624 0.319414,-0.3501 1.241504,-1.2104 2.03125,-1.9063 1.810119,-1.5955 2.318857,-2.1244 3.0625,-3.125 1.016658,-1.3683 1.623171,-2.5093 2.03125,-3.9375 0.225219,-0.7883 0.231874,-0.9149 0.1875,-2.1875 -0.03662,-1.0503 -0.102672,-1.5657 -0.28125,-2.25 -0.285609,-1.0945 -0.800019,-2.1456 -1.34375,-2.7813 -1.163775,-1.3603 -3.357509,-2.8686 -5.59375,-3.8124 -0.545221,-0.2302 -1.754106,-0.778 -2.6875,-1.2188 -2.957369,-1.3965 -3.934743,-1.75 -4.65625,-1.75 -0.156949,0 -0.281736,0.027 -0.375,0.094 -0.09326,0.067 -0.158021,0.1788 -0.21875,0.375 -0.121457,0.3923 -0.188153,1.0956 -0.28125,2.3437 -0.06646,0.891 -0.11178,1.5318 -0.09375,2 0.01803,0.4682 0.106329,0.751 0.21875,0.9063 0.115079,0.159 0.312806,0.3325 0.65625,0.5 0.348493,0.1698 0.832096,0.3305 1.40625,0.5 2.040328,0.602 4.048398,1.5472 4.875,2.3124 0.354251,0.3281 0.706891,0.8638 1,1.4376 0.293109,0.5737 0.517079,1.197 0.5625,1.6562 0.07094,0.7174 -0.182872,1.7067 -0.71875,3.0625 -0.382542,0.9679 -0.653368,1.5844 -1.1875,2.2813 -0.534132,0.6968 -1.323373,1.4945 -2.71875,2.8437 -0.121677,0.1177 -0.225856,0.255 -0.34375,0.375 -0.920207,0.9381 -1.606896,1.7989 -1.78125,2.3125 -0.06837,0.2014 -0.09976,0.5937 -0.09375,1.0312 0.006,0.4376 0.04721,0.9372 0.125,1.3438 0.269275,1.4074 1.074662,3.45 2.21875,5.625 0.283535,0.539 0.626348,1.1197 0.90625,1.5938 0.139951,0.237 0.250631,0.4501 0.34375,0.5937 0.04656,0.072 0.09633,0.1492 0.125,0.1875 0.01433,0.019 0.02298,0.023 0.03125,0.031 0.004,0 0.02323,0 0.03125,0 0.01604,-0.01 0.03322,-0.017 0.0625,-0.031 0.05856,-0.028 0.117137,-0.074 0.21875,-0.125 0.203227,-0.101 0.509259,-0.2482 0.8125,-0.4062 0.46002,-0.2398 1.788847,-0.8486 3.03125,-1.4063 0.621201,-0.2788 1.205005,-0.5557 1.65625,-0.75 0.225622,-0.097 0.42491,-0.1632 0.5625,-0.2187 0.0688,-0.028 0.114817,-0.048 0.15625,-0.063 0.02072,-0.01 0.04886,-0.027 0.0625,-0.031 0.01364,0 0.01839,0 0.03125,0 0.01419,0 0.02299,0.022 0.03125,0.031 0.0083,0.01 0.02713,0.02 0.03125,0.031 0.0082,0.023 -0.0029,0.027 0,0.062 0.0058,0.072 0.0088,0.191 0,0.3125 -0.01765,0.243 -0.05869,0.5581 -0.125,0.9063 -0.219099,1.1498 -0.548576,1.7633 -1.625,2.8124 -1.531892,1.4931 -3.63737,2.5433 -5.8125,2.9688 -1.076965,0.2099 -3.008886,0.2504 -4.25,0.062 -0.842122,-0.1273 -1.259769,-0.2013 -1.4375,-0.2187 -0.02962,0 -0.04657,2e-4 -0.0625,0 0.01986,0.012 0.03074,0.013 0.0625,0.031 0.412242,0.2391 1.51168,0.5726 2.75,0.8438 1.23832,0.2711 2.631794,0.4864 3.6875,0.5624 2.144148,0.1547 6.75152,0.019 9.34375,-0.25 3.512054,-0.3638 6.384379,-1.0898 8.75,-2.25 0.612159,-0.3002 1.112109,-0.589 1.5,-0.8437 0.360738,-0.2368 0.595782,-0.4515 0.6875,-0.5625 8.54e-4,0 -0.0016,-0.027 0,-0.031 0.0031,-0.01 0.02584,0.01 0.03125,0 0.02164,-0.036 0.06529,-0.1162 0.125,-0.1876 0.119421,-0.1426 0.295106,-0.3513 0.53125,-0.5937 0.943907,-0.9694 1.89608,-1.6765 2.567259,-2.7513 1.4331,-2.2949 2.103734,-3.6892 3.004442,-6.8078 0.07075,-0.4808 0.605503,-2.6791 0.598826,-4.4154 -0.0067,-1.7362 -0.143512,-3.2708 -0.440673,-5.0192 -0.309074,-1.8184 -0.825513,-3.3976 -1.009518,-5.1313 -0.122213,-1.1515 -0.07753,-1.901 0.02966,-2.3125 0.474499,-1.8217 2.241578,-3.9769 5.21875,-6.2812 0.628998,-0.4869 2.557152,-1.8095 3.1875,-2.1876 -0.0183,-0.01 -0.02792,-0.025 -0.0625,-0.031 -0.138336,-0.023 -0.408185,-0.038 -0.84375,-0.062 -0.239413,-0.013 -0.474187,-0.029 -0.71875,-0.031 z m -3.21875,0.6563 c 0.07497,-0.01 0.119809,-0.01 0.15625,0 0.01781,0 0.05009,0.014 0.0625,0.031 0.0062,0.01 0.0018,0.021 0,0.031 -0.0018,0.01 0.0053,0.025 0,0.031 -0.02123,0.027 -0.06512,0.034 -0.125,0.063 -0.119757,0.058 -0.346374,0.1449 -0.65625,0.25 l -0.5,0.1874 0.34375,0.031 c 0.137382,0.014 0.236184,0.019 0.28125,0.031 0.01127,0 0.02021,0.023 0.03125,0.031 5.6e-5,3e-4 5.5e-5,0.031 0,0.031 -3.93e-4,3e-4 0.0014,0.031 0,0.031 -0.01097,0.01 -0.01853,0 -0.03125,0 -0.01272,0 -0.04278,0 -0.0625,0 -0.327283,0.017 -0.829807,0.1871 -1.375,0.4375 -0.545193,0.2504 -1.119228,0.5867 -1.59375,0.9375 -0.888967,0.6576 -1.967726,1.8118 -2.28125,2.4687 -0.331262,0.6943 -0.810978,2.7366 -0.875,3.7188 -0.04696,0.7204 -0.0076,1.7542 0.28125,5.0625 0.100963,1.1567 0.126784,2.1782 0.09375,3.6875 -0.04026,1.8396 -0.07593,2.224 -0.28125,3.125 -0.313367,1.3753 -0.815916,2.6616 -1.3125,3.2188 -0.164685,0.1847 -0.513427,0.2278 -0.8125,0.1874 -0.149537,-0.02 -0.29219,-0.059 -0.40625,-0.125 -0.11406,-0.066 -0.190868,-0.1701 -0.21875,-0.2812 -0.0098,-0.039 -0.01055,-0.086 0,-0.1562 0.01055,-0.07 0.03699,-0.1507 0.0625,-0.25 0.05102,-0.1988 0.124984,-0.444 0.21875,-0.7188 0.37507,-1.0992 0.903124,-3.9221 1.03125,-5.5 0.168451,-2.0745 0.104069,-3.549 -0.28125,-7.0938 -0.282713,-2.6006 -0.1988,-3.7788 0.375,-4.9687 0.391927,-0.8127 0.964271,-1.372 2.28125,-2.25 2.186696,-1.4578 2.717585,-1.6943 4.34375,-2.0313 0.407033,-0.084 0.732844,-0.1505 0.96875,-0.1874 0.117953,-0.019 0.206279,-0.025 0.28125,-0.031 z m -33.03125,0.9687 c 0.01386,0 0.01452,0 0.03125,0 0.01673,0.01 0.03852,0.022 0.0625,0.031 0.04796,0.019 0.114239,0.06 0.1875,0.094 0.146522,0.067 0.328368,0.1409 0.53125,0.25 0.403167,0.2169 1.027386,0.5068 1.34375,0.625 0.3217,0.1202 0.894498,0.3838 1.3125,0.5938 0.41546,0.2089 1.402517,0.6536 2.1875,0.9688 0.853486,0.3426 1.910642,0.8417 2.8125,1.3124 0.901858,0.4708 1.669851,0.9066 2,1.1876 0.621708,0.5289 1.542313,1.7167 1.9375,2.4687 0.175198,0.3334 0.427245,0.9815 0.5625,1.4687 0.217185,0.7825 0.223651,1.0397 0.21875,2.1876 -0.0027,0.6204 0.005,0.9536 -0.03125,1.2187 -0.03629,0.2651 -0.114708,0.4493 -0.25,0.7813 -0.452872,1.1109 -1.079069,2.3278 -1.5,2.875 -0.21669,0.2816 -0.771517,0.834 -1.3125,1.375 -0.270492,0.2704 -0.525352,0.5414 -0.75,0.75 -0.224648,0.2085 -0.402232,0.3733 -0.5,0.4374 -0.06047,0.04 -0.210144,0.1598 -0.375,0.3126 -0.164856,0.1527 -0.351958,0.3435 -0.53125,0.5312 -0.32491,0.3399 -0.511915,0.5091 -0.65625,0.5938 -0.144335,0.085 -0.251542,0.069 -0.46875,0.062 -0.332715,-0.011 -0.580703,-0.036 -0.75,-0.062 -0.08465,-0.013 -0.141762,-0.013 -0.1875,-0.031 -0.02287,-0.01 -0.04803,-0.018 -0.0625,-0.031 -0.01447,-0.013 -0.03125,-0.042 -0.03125,-0.062 0,-0.033 0.0057,-0.081 0.03125,-0.125 0.02551,-0.044 0.07773,-0.095 0.125,-0.1563 0.09455,-0.1218 0.235678,-0.2579 0.40625,-0.4375 0.341144,-0.3591 0.798159,-0.8313 1.34375,-1.3125 1.745027,-1.5396 2.348738,-2.2582 3.125,-3.875 0.564441,-1.1756 0.748207,-1.9011 0.75,-2.8437 0.0033,-1.7014 -0.542475,-3.2612 -1.65625,-4.6876 -0.531057,-0.68 -0.896446,-1.1006 -1.53125,-1.5 -0.634804,-0.3993 -1.521362,-0.7862 -3.15625,-1.4687 -1.981984,-0.8274 -3.994888,-1.7091 -5.1875,-2.2813 -0.25697,-0.1232 -0.427647,-0.2037 -0.53125,-0.2812 -0.103603,-0.077 -0.15625,-0.1632 -0.15625,-0.25 0,-0.061 0.04785,-0.1428 0.09375,-0.2188 0.0459,-0.076 0.08823,-0.144 0.15625,-0.2187 0.06802,-0.075 0.149544,-0.137 0.21875,-0.1875 0.06921,-0.051 0.129369,-0.094 0.1875,-0.094 z"
       id="path3465"
       inkscape:connector-curvature="0"
       sodipodi:nodetypes="ccccssccccccccccccccccccsccsccscsscccscccccccccsccccsccssccccccccccscsccccccscccccccscccccccccccccccccccccsccssccccccccccscscccccccscsccscscccscccssccscccccccccccccccccccccccccccscssccccscccsccsscccc" />
    <path
       style="fill:#ff0000"
       d="m 52.855153,1009.8212 c -0.111832,-0.023 2.633838,-0.1549 1.584816,-0.091 -1.811477,0.037 -3.423771,1.6509 -4.644616,2.9973 -0.901779,1.1274 -1.369549,2.2375 -1.512925,3.1362 -0.135236,1.3124 0.245938,2.6845 0.193708,4.3794 0.122722,1.8794 0.481785,4.445 0.362203,6.3326 0.05771,1.6946 -0.837076,5.8395 -1.376256,7.8428 -0.334373,0.7774 -2.045161,4.2666 -2.737358,4.803 -0.437735,-0.044 -1.314317,-1.7508 -0.816615,-2.845 0.613475,-1.4004 1.750646,-4.9421 2.017006,-6.177 0.28622,-1.5156 0.616643,-4.1848 0.713167,-6.2188 -0.05908,-1.8547 -0.125322,-3.4303 -0.243252,-5.0405 -0.206855,-1.4949 -0.382587,-3.3476 0.04844,-4.7264 0.502108,-1.3358 0.957303,-1.5701 1.815358,-2.2558 1.141163,-0.6913 2.373731,-1.7872 4.206329,-2.404 0.643648,-0.047 1.78796,-0.4739 2.355166,-0.3851 -0.431815,0.068 -0.934316,0.2988 -1.365436,0.3679 z"
       id="path3445"
       inkscape:connector-curvature="0"
       sodipodi:nodetypes="cccccccccccccccccc" />
    <path
       style="fill:#ff0000"
       d="m 22.99765,1010.3007 c 0.75824,0.2354 1.586721,0.6599 2.852189,1.2348 1.381352,0.5965 1.769347,0.811 2.965575,1.3583 1.22896,0.6633 1.510598,0.8421 2.508189,1.5174 0.997175,0.853 1.519598,1.1359 2.131987,1.8881 0.65211,0.7933 1.070575,1.6174 1.250829,2.6399 0.350938,1.0853 0.332578,2.6269 0.164043,3.7432 -0.301091,1.0495 -0.81676,2.1362 -1.31105,3.1032 -0.788679,1.1694 -1.974488,2.4444 -3.019487,3.3795 -1.077678,0.917 -1.876343,1.8859 -2.717895,2.9201 -0.90285,1.1114 -1.174355,1.4958 -1.887801,3.9962 -0.07811,-2.4185 -0.775616,-4.1042 3.600036,-8.5285 0.826921,-0.8572 1.453528,-1.6812 2.450195,-3.0897 0.489048,-0.9003 0.905182,-2.0388 0.874757,-3.0829 0.04647,-1.4493 -0.183823,-2.9014 -0.93263,-4.1434 -0.642278,-0.8165 -1.283513,-1.262 -2.173737,-1.8336 -0.947737,-0.5769 -2.050756,-1.0143 -3.055779,-1.4678 -1.863567,-0.7716 -1.873115,-0.8359 -3.822098,-1.5834 -1.564933,-0.5204 -2.737534,-0.3 -2.494572,-1.2166 0.42714,-1.1982 0.168656,-1.6768 0.771958,-1.5785 z"
       id="path3443"
       inkscape:connector-curvature="0"
       sodipodi:nodetypes="ccccccccccccccccccccc" />
    <path
       style="fill:#333333"
       d="m 36.10097,1040.6522 c -0.07472,-0.09 -0.04297,-0.259 0.128361,-0.6832 0.726851,-1.7995 1.050355,-4.5303 0.675275,-5.7002 l -0.150796,-0.4704 -1.264965,0.6189 c -1.237574,0.6054 -1.636558,0.8509 -4.002892,2.4635 -1.393268,0.9495 -2.296661,1.3877 -2.990688,1.4506 -1.150321,0.1043 -2.2904,-0.5743 -2.385733,-1.4201 -0.02541,-0.2255 0.0046,-0.5639 0.06675,-0.7522 l 0.112949,-0.3422 0.108752,0.4283 c 0.219176,0.8632 0.796238,1.3025 1.714087,1.305 0.894579,0 1.535339,-0.2966 3.516243,-1.6402 1.856503,-1.2593 3.850823,-2.3555 5.065326,-2.7842 l 0.475541,-0.1679 0.16706,0.221 c 0.09188,0.1215 0.26963,0.5309 0.394994,0.9098 0.295503,0.893 0.311854,2.0617 0.04455,3.184 -0.189718,0.7966 -1.303944,3.4119 -1.47732,3.4676 -0.05401,0.017 -0.142885,-0.022 -0.197491,-0.088 l 0,0 z"
       id="path3451"
       inkscape:connector-curvature="0" />
    <path
       style="fill:#ff0000"
       d="m 27.798915,1046.6908 c 2.876748,-0.1744 2.602168,-0.2072 5.180262,-0.2783 1.096398,-0.058 1.954042,-0.1421 3.555644,-0.3506 1.070336,-0.1433 1.823796,-0.206 2.815871,-0.5123 0.89349,-0.2694 1.60574,-0.4088 2.527687,-0.8705 1.218621,-0.5904 1.574491,-0.7293 2.658002,-1.4188 0.816208,-0.5504 0.986884,-0.6599 2.194112,-1.7655 0.340319,-0.3256 1.645195,-1.7672 1.520873,-0.6646 -0.925669,1.3105 -0.876403,1.4434 -2.345639,2.7723 -1.435516,1.1291 -2.766418,1.9113 -4.362289,2.5709 -1.478395,0.6047 -1.901031,0.6593 -2.994374,0.9261 -1.514019,0.3715 -2.577131,0.4606 -3.802365,0.6175 -1.659643,0.1527 -3.078372,0.2447 -4.823862,0.2981 -1.42709,0.016 -5.188289,-0.084 -7.237388,-0.4047 1.272291,-0.2655 2.38631,-0.335 3.46168,-0.5516 z"
       id="path4255"
       inkscape:connector-curvature="0"
       sodipodi:nodetypes="cccccccccccccccc" />
    <path
       style="fill:#00ff00"
       d="m 20.808754,45.002633 c -0.621017,-0.17313 -1.141911,-0.327536 -1.157543,-0.343126 -0.01563,-0.01559 1.089094,-0.02835 2.454946,-0.02835 2.663797,0 3.004444,-0.05609 4.819346,-0.793618 2.124526,-0.863346 4.038243,-2.426307 4.784287,-3.9074 0.263575,-0.523264 0.629528,-2.364759 0.496396,-2.49789 -0.08535,-0.08535 -2.382086,0.8991 -4.827585,2.069234 -1.035584,0.49551 -1.895264,0.886438 -1.910399,0.868727 -0.01514,-0.01771 -0.386231,-0.657233 -0.824658,-1.421161 -1.947712,-3.393751 -3.087625,-6.799001 -2.836519,-8.473495 0.116405,-0.776244 0.612686,-1.436229 2.765268,-3.67742 2.249302,-2.341893 2.601093,-2.817661 3.239939,-4.38175 0.932685,-2.283495 0.977507,-3.357596 0.205314,-4.920023 -0.791335,-1.601158 -2.032099,-2.438606 -5.24205,-3.538099 -2.839906,-0.972743 -2.822859,-0.955685 -2.804619,-2.806357 0.01347,-1.3668319 0.195794,-3.3865846 0.339517,-3.7611196 0.08744,-0.2278702 0.547593,-0.3762065 0.891446,-0.2873706 0.158104,0.040847 0.12425,0.06429 -0.107322,0.074317 -0.296909,0.012856 -0.362539,0.098097 -0.536644,0.6969937 -0.109099,0.3752905 -0.198363,0.8594879 -0.198363,1.0759942 0,0.4620411 0.103895,0.5198155 1.602578,0.8911684 0.568902,0.140966 1.932608,0.6301684 3.030458,1.0871164 6.312554,2.627416 7.465969,3.672391 7.722266,6.996246 0.21104,2.736935 -0.370294,3.985243 -3.472662,7.456906 -1.692089,1.893509 -2.251567,2.642161 -2.767145,3.70279 -0.571273,1.175203 -0.726346,2.010973 -0.632255,3.407558 0.04273,0.634285 0.07629,1.408939 0.07458,1.721455 -0.0063,1.154578 0.910115,1.89516 2.342297,1.892803 0.969533,-0.0016 1.544395,-0.271831 4.068327,-1.912468 2.13698,-1.389106 3.880631,-2.373948 4.209044,-2.377337 0.138762,-0.0014 0.229595,0.150022 0.282715,0.471399 0.208013,1.258473 -0.02693,3.105391 -0.614948,4.834244 -0.389444,1.145013 -0.397736,1.384508 -0.04793,1.384508 0.226974,0 0.253623,0.0512 0.180741,0.34724 -0.04702,0.190982 -0.329137,0.844424 -0.626931,1.452094 -0.297795,0.60767 -0.491635,1.104854 -0.430756,1.104854 0.228202,0 2.48007,-1.191427 3.482482,-1.842526 2.595583,-1.685913 4.074996,-3.74999 5.446923,-7.599554 1.384917,-3.886011 1.82223,-6.337169 1.987455,-11.139778 0.06786,-1.972612 0.04025,-2.838668 -0.138864,-4.35517 -0.253727,-2.148201 -0.209912,-3.759869 0.12461,-4.583605 0.121032,-0.298035 0.242475,-0.519465 0.269873,-0.492067 0.0274,0.0274 -0.04272,0.441708 -0.155828,0.920689 -0.159211,0.674232 -0.186732,1.1845 -0.121885,2.259834 0.409056,6.783205 0.412844,6.918197 0.246256,8.7757 -0.177135,1.975102 -0.483936,4.176642 -0.695063,4.987629 -0.27827,1.068893 -1.037451,3.42116 -1.511377,4.682886 -0.295367,0.78635 -0.49518,1.537768 -0.49518,1.862172 0,0.719441 0.591229,1.914969 0.947018,1.914969 0.341377,0 0.977185,-0.965395 2.079015,-3.156726 0.82798,-1.646696 0.918606,-1.91046 1.323226,-3.851207 0.832538,-3.993225 0.987182,-6.030598 0.699656,-9.217642 -0.197124,-2.184995 -0.40226,-5.562531 -0.392242,-6.458195 0.01793,-1.602899 0.734962,-2.988584 2.388949,-4.6167091 1.055225,-1.0387261 2.484012,-1.9282529 3.104436,-1.9327436 0.146927,-0.00106 0.352371,-0.057014 0.456543,-0.1243355 0.146388,-0.094603 0.103372,-0.1251051 -0.189403,-0.1343041 -0.358673,-0.01127 -0.350283,-0.021999 0.157836,-0.2018596 0.530905,-0.1879258 0.719629,-0.4214507 0.3406,-0.4214507 -0.107825,0 -0.59481,0.090697 -1.082188,0.2015488 -1.06008,0.24111 -1.30329,0.1477792 -0.342644,-0.1314881 1.415791,-0.4115815 2.675749,-0.575137 4.430596,-0.575137 l 1.777353,0 -1.314951,0.8997114 c -3.53427,2.4182051 -5.989548,4.9153555 -6.824912,6.9413065 -0.461713,1.119759 -0.393578,2.754903 0.244144,5.859176 0.639448,3.112668 0.774237,4.081203 0.869848,6.250319 0.167813,3.807121 -1.024273,8.05884 -3.274777,11.679889 -0.615584,0.990473 -1.610031,2.17496 -1.610031,1.917713 0,-0.04895 0.170463,-0.324316 0.378807,-0.611927 0.401961,-0.554892 0.502096,-1.116383 0.199092,-1.116383 -0.205371,0 -0.672933,0.365803 -1.833332,1.434327 -1.704305,1.56937 -4.30571,2.969086 -6.699519,3.604757 -1.925698,0.511365 -4.711186,0.852622 -8.333758,1.020992 -1.632028,0.07585 -3.393481,0.223739 -3.914341,0.328637 -1.119351,0.22543 -4.445612,0.811954 -4.987628,0.879475 -0.208344,0.02596 -0.886912,-0.09446 -1.507928,-0.267589 z"
       id="path4273"
       inkscape:connector-curvature="0"
       transform="translate(0,1002.3622)" />
    <path
       style="fill:#00ff00"
       d="m 25.946039,34.130606 c -0.01611,-0.206217 -0.01131,-0.40711 0.01066,-0.446428 0.02197,-0.03932 0.131743,-0.372827 0.243938,-0.741131 0.534329,-1.754043 0.723251,-2.090346 2.131687,-3.794643 0.586739,-0.709992 1.180069,-1.323573 2.849183,-2.946429 1.493096,-1.451715 2.190835,-2.335343 2.740711,-3.470878 0.609565,-1.258796 0.928764,-2.132982 1.014154,-2.777448 0.07057,-0.532593 0.06914,-1.907275 -0.0025,-2.412388 -0.07914,-0.557936 -0.375373,-1.719935 -0.538943,-2.114034 C 34.135665,14.802588 33.666286,14.101875 33.15638,13.578269 32.693527,13.102983 31.454153,12.107498 30.752966,11.647812 29.624598,10.908073 28.7277,10.436497 26.846716,9.5939636 26.392475,9.3904993 25.518591,8.9945286 24.904752,8.7140289 24.290913,8.4335292 23.728413,8.1819785 23.654752,8.1550274 22.931413,7.8903712 21.214016,7.186685 21.25671,7.1724538 c 0.03017,-0.010056 0.04349,-0.036656 0.02961,-0.059113 -0.03562,-0.05763 -0.0011,-0.052716 0.378693,0.053841 0.553492,0.1553103 1.656266,0.6197534 3.641521,1.53366 1.03125,0.4747331 2.24118,1.0253731 2.688733,1.2236444 1.941244,0.8599941 3.14666,1.5726101 4.498767,2.6595761 0.546402,0.439255 1.259322,1.153472 1.514476,1.517231 0.492909,0.702713 0.948051,1.77712 1.183023,2.792646 0.149438,0.645854 0.201556,1.270666 0.202949,2.433035 l 0.0013,1.116072 -0.146748,0.491071 c -0.352592,1.179903 -0.83923,2.251532 -1.437163,3.164785 -0.92957,1.419779 -1.591732,2.143747 -3.639303,3.979002 -1.085988,0.973379 -2.046946,1.907897 -2.363201,2.298178 -0.568412,0.701461 -1.107024,1.62811 -1.284452,2.209821 -0.05242,0.171875 -0.170683,0.49784 -0.262799,0.724367 -0.166454,0.409338 -0.25419,0.740073 -0.275625,1.039026 -0.0062,0.08594 -0.02438,-0.01247 -0.04049,-0.218691 l -2e-6,0 z"
       id="path4275"
       inkscape:connector-curvature="0"
       transform="translate(0,1002.3622)" />
    <path
       style="fill:#00ff00"
       d="m 46.177992,20.536313 c 0.01427,-1.084317 0.0087,-2.276579 -0.01232,-2.620083 -0.02688,-0.4401 -0.05471,-0.701053 -0.150656,-1.412635 -0.137571,-1.020316 -0.176479,-1.456585 -0.197074,-2.209709 -0.03606,-1.318737 0.06798,-1.942794 0.461792,-2.770027 0.327441,-0.687808 0.656018,-1.153531 1.115466,-1.5810518 1.175455,-1.0937746 3.160804,-2.2752711 4.986161,-2.9673032 1.307671,-0.4957663 2.723171,-0.7833385 4.389317,-0.8917313 0.398525,-0.025926 1.563877,-0.026055 1.941387,-2.141e-4 0.602161,0.041218 0.852389,0.074899 0.829662,0.1116714 -0.0048,0.0078 -0.113566,0.080305 -0.24165,0.1611113 -0.616957,0.3892295 -2.241403,1.5057935 -2.771268,1.904832 -0.08528,0.064226 -0.158517,0.113317 -0.162742,0.1090914 -0.0091,-0.00906 0.386469,-0.3122675 0.800703,-0.6138069 0.381811,-0.2779381 0.82266,-0.5855665 1.600538,-1.1168705 0.34724,-0.2371709 0.638448,-0.4379138 0.647129,-0.4460954 0.0099,-0.00932 -0.527009,-0.012204 -1.436311,-0.00773 -1.284992,0.00632 -1.49841,0.010897 -1.854577,0.039739 -0.635164,0.051436 -1.021989,0.1014292 -1.56258,0.2019485 -0.902653,0.1678427 -1.972034,0.4809498 -1.953613,0.5720041 0.0045,0.022264 0.02709,0.025678 0.154749,0.023389 0.179893,-0.00323 0.294929,-0.022541 0.970224,-0.1629064 0.286473,-0.059546 0.584783,-0.1194276 0.662912,-0.1330709 0.182606,-0.031888 0.354656,-0.032642 0.39552,-0.00173 0.02805,0.021219 0.02265,0.023222 -0.06406,0.023748 -0.179223,0.00109 -0.846119,0.1152235 -1.483662,0.2539214 -1.280652,0.2786064 -1.835031,0.5115368 -3.08017,1.2941772 -0.403546,0.2536521 -1.443637,0.9465942 -1.694379,1.12885 -0.232808,0.16922 -0.683287,0.5254935 -0.907559,0.7177672 -0.297607,0.255145 -0.527217,0.518561 -0.70454,0.808271 -0.15889,0.259594 -0.383631,0.759408 -0.447405,0.995009 -0.01581,0.0584 -0.03162,0.103311 -0.03514,0.09979 -0.0035,-0.0035 0.01194,-0.100406 0.03434,-0.21531 0.04947,-0.25373 0.06782,-0.441662 0.04311,-0.441662 -0.069,0 -0.294148,0.488204 -0.381635,0.827512 -0.06014,0.233247 -0.101162,0.471874 -0.137216,0.798202 -0.02425,0.219497 -0.02863,0.388192 -0.02788,1.073287 0.001,0.912823 0.01579,1.163257 0.13378,2.266535 0.130799,1.223053 0.149966,1.471105 0.174276,2.255476 0.01713,0.552767 0.0023,1.654941 -0.03239,2.407004 -0.0066,0.143237 -0.0076,-0.07339 -0.0023,-0.481401 l 0,0 z"
       id="path4277"
       inkscape:connector-curvature="0"
       transform="translate(0,1002.3622)" />
    <path
       style="fill:#00ff00"
       d="m 27.924498,45.770062 0,-0.145283 0.08328,0.0098 c 0.0458,0.0054 0.487942,0.0143 0.982532,0.01982 0.946888,0.01056 1.482738,-0.0035 2.777507,-0.0729 2.502008,-0.134098 4.691622,-0.380751 6.147725,-0.692524 0.823927,-0.176414 1.911932,-0.450377 2.328086,-0.586218 1.531013,-0.499755 3.069889,-1.244325 4.376841,-2.117692 0.922517,-0.61647 1.45947,-1.055188 2.142972,-1.750922 0.420472,-0.427995 0.569021,-0.614594 1.077481,-1.353464 0.157647,-0.229084 0.286631,-0.409657 0.286631,-0.401273 0,0.03506 -0.146202,0.281746 -0.302268,0.510009 -0.271841,0.397599 -0.349853,0.537965 -0.317161,0.570657 0.06142,0.06142 0.315988,-0.184957 0.75359,-0.729367 0.870224,-1.082629 1.80397,-2.726915 2.513652,-4.426435 0.560698,-1.342737 1.013316,-2.823031 1.282518,-4.194501 0.01472,-0.07496 0.02341,-0.09076 0.04998,-0.09076 0.02532,0 0.03037,0.0076 0.02374,0.03551 -0.0046,0.01953 -0.0595,0.298311 -0.121927,0.619508 -0.104002,0.535074 -0.128624,0.634236 -0.293923,1.183772 -0.545427,1.81327 -1.050964,3.0789 -1.733744,4.3405 -0.285344,0.527241 -0.848844,1.480882 -1.151814,1.949278 -0.299107,0.462423 -0.548566,0.959404 -1.223501,1.723186 -0.416293,0.471092 -1.020731,1.090907 -1.12047,1.198485 -1.199023,1.055658 -1.709026,1.304147 -2.888573,1.900981 -2.306361,1.158784 -5.04555,1.890975 -8.554729,2.286697 -1.460138,0.164657 -3.927638,0.304851 -5.847837,0.332252 -0.329878,0.0047 -0.750709,0.01252 -0.93518,0.01737 l -0.335402,0.0088 z"
       id="path4279"
       inkscape:connector-curvature="0"
       transform="translate(0,1002.3622)"
       sodipodi:nodetypes="cccsssssssssssscsccssssccscccc" />
  </g>
  <g
     inkscape:groupmode="layer"
     id="layer3"
     inkscape:label="Layer2" />
</svg>
