<?xml version="1.0" encoding="UTF-8" standalone="no"?>
<!-- Created with Inkscape (http://www.inkscape.org/) -->

<svg
   xmlns:dc="http://purl.org/dc/elements/1.1/"
   xmlns:cc="http://creativecommons.org/ns#"
   xmlns:rdf="http://www.w3.org/1999/02/22-rdf-syntax-ns#"
   xmlns:svg="http://www.w3.org/2000/svg"
   xmlns="http://www.w3.org/2000/svg"
   xmlns:xlink="http://www.w3.org/1999/xlink"
   xmlns:sodipodi="http://sodipodi.sourceforge.net/DTD/sodipodi-0.dtd"
   xmlns:inkscape="http://www.inkscape.org/namespaces/inkscape"
   width="48px"
   height="48px"
   id="svg3922"
   version="1.1"
   inkscape:version="0.48.5 r10040"
   inkscape:export-filename="/home/must40/workspace/workload/ui/icon_2.png"
   inkscape:export-xdpi="90"
   inkscape:export-ydpi="90"
   sodipodi:docname="Nowy dokument 3">
  <defs
     id="defs3924">
    <linearGradient
       id="linearGradient4475">
      <stop
         id="stop4477"
         offset="0"
         style="stop-color:#ea0000;stop-opacity:0.97916669;" />
      <stop
         style="stop-color:#eaa600;stop-opacity:1;"
         offset="0.5"
         id="stop4479" />
      <stop
         id="stop4481"
         offset="1"
         style="stop-color:#ea0000;stop-opacity:1;" />
    </linearGradient>
    <filter
       color-interpolation-filters="sRGB"
       inkscape:collect="always"
       id="filter8920"
       x="-0.4006027"
       width="1.8012054"
       y="-0.060904615"
       height="1.1218092">
      <feGaussianBlur
         inkscape:collect="always"
         stdDeviation="0.56712543"
         id="feGaussianBlur8922" />
    </filter>
    <filter
       color-interpolation-filters="sRGB"
       inkscape:collect="always"
       id="filter8924"
       x="-0.4012706"
       width="1.8025413"
       y="-0.060871363"
       height="1.1217427">
      <feGaussianBlur
         inkscape:collect="always"
         stdDeviation="0.56712543"
         id="feGaussianBlur8926" />
    </filter>
    <linearGradient
       gradientTransform="matrix(1.2407612,0,0,1.409554,-12.163235,-1421.4421)"
       inkscape:collect="always"
       xlink:href="#linearGradient4475"
       id="linearGradient3891"
       x1="12.661774"
       y1="1025.6049"
       x2="45.737358"
       y2="1025.6049"
       gradientUnits="userSpaceOnUse" />
    <linearGradient
       id="linearGradient3885">
      <stop
         style="stop-color:#ea0000;stop-opacity:0.97916669;"
         offset="0"
         id="stop3887" />
      <stop
         id="stop3893"
         offset="0.5"
         style="stop-color:#eaa600;stop-opacity:1;" />
      <stop
         style="stop-color:#ea0000;stop-opacity:1;"
         offset="1"
         id="stop3889" />
    </linearGradient>
  </defs>
  <sodipodi:namedview
     id="base"
     pagecolor="#ffffff"
     bordercolor="#666666"
     borderopacity="1.0"
     inkscape:pageopacity="0.0"
     inkscape:pageshadow="2"
     inkscape:zoom="7"
     inkscape:cx="-3.5"
     inkscape:cy="24"
     inkscape:current-layer="layer1"
     showgrid="true"
     inkscape:grid-bbox="true"
     inkscape:document-units="px"
     inkscape:window-width="1366"
     inkscape:window-height="705"
     inkscape:window-x="0"
     inkscape:window-y="0"
     inkscape:window-maximized="1" />
  <metadata
     id="metadata3927">
    <rdf:RDF>
      <cc:Work
         rdf:about="">
        <dc:format>image/svg+xml</dc:format>
        <dc:type
           rdf:resource="http://purl.org/dc/dcmitype/StillImage" />
        <dc:title></dc:title>
      </cc:Work>
    </rdf:RDF>
  </metadata>
  <g
     id="layer1"
     inkscape:label="Layer 1"
     inkscape:groupmode="layer">
    <path
       transform="matrix(1.2407612,0,0,1.409554,-12.163235,-1421.4421)"
       sodipodi:type="inkscape:offset"
       inkscape:radius="1.1294073"
       inkscape:original="M 11.65625 1010.1562 C 15.729911 1020.0924 16.522732 1030.3712 16.09375 1040.7812 C 19.524174 1040.1591 22.992409 1039.6295 26.65625 1040.875 C 27.002054 1037.2352 26.499091 1033.4837 28.59375 1030.0625 C 29.10134 1030.1155 29.38519 1030.1335 29.78125 1030.0625 C 31.875909 1033.4837 31.404196 1037.2352 31.75 1040.875 C 35.413841 1039.6297 38.850826 1040.159 42.28125 1040.7812 C 41.852268 1030.3711 42.676339 1020.0924 46.75 1010.1562 C 43.373324 1011.49 39.590652 1011.4837 35.5 1010.4375 C 38.862233 1018.1147 36.681816 1026.3037 35.25 1034.4375 C 33.688316 1031.3761 32.988866 1028.0689 33.09375 1024.5312 C 30.608942 1025.4193 28.164368 1025.4976 25.3125 1024.5312 C 25.417384 1028.0689 24.717934 1031.376 23.15625 1034.4375 C 21.724434 1026.3036 19.544017 1018.1147 22.90625 1010.4375 C 18.815598 1011.4837 15.032926 1011.49 11.65625 1010.1562 z "
       style="fill:none;stroke:#000000;stroke-width:1px;stroke-linecap:butt;stroke-linejoin:miter;stroke-opacity:1"
       id="path3895"
       d="m 11.53125,1009.0312 a 1.1295202,1.1295202 0 0 0 -0.90625,1.5626 c 3.989467,9.7308 4.769116,19.834 4.34375,30.1562 a 1.1295202,1.1295202 0 0 0 1.3125,1.1562 c 3.40965,-0.6183 6.634164,-1.1129 10,0.031 a 1.1295202,1.1295202 0 0 0 1.5,-0.9687 c 0.329792,-3.4713 0.06881,-6.6329 1.40625,-9.4688 1.343769,2.8394 1.108259,6.0033 1.4375,9.4688 a 1.1295202,1.1295202 0 0 0 1.5,0.9687 c 3.367759,-1.1447 6.557999,-0.6499 9.96875,-0.031 a 1.1295202,1.1295202 0 0 0 1.3125,-1.1562 c -0.425273,-10.3201 0.384763,-20.4235 4.375,-30.1562 a 1.1295202,1.1295202 0 0 0 -1.4375,-1.5 c -3.107495,1.2274 -6.632718,1.255 -10.5625,0.25 a 1.1295202,1.1295202 0 0 0 -1.3125,1.5312 c 2.595272,5.9259 1.549115,12.3877 0.34375,19 -0.411415,-1.6965 -0.648538,-3.4645 -0.59375,-5.3125 a 1.1295202,1.1295202 0 0 0 -1.5,-1.0937 c -2.283553,0.8161 -4.382745,0.8974 -7.03125,0 a 1.1295202,1.1295202 0 0 0 -1.5,1.0937 c 0.05479,1.848 -0.182335,3.616 -0.59375,5.3125 -1.205365,-6.6123 -2.251523,-13.074 0.34375,-19 a 1.1295202,1.1295202 0 0 0 -1.3125,-1.5312 c -3.929782,1.005 -7.455005,0.9774 -10.5625,-0.25 a 1.1295202,1.1295202 0 0 0 -0.53125,-0.063 z" />
    <path
       style="fill:url(#linearGradient3891);fill-opacity:1.0;fill-rule:nonzero"
       d="M 8.5653009,41.001379 C 8.8220975,27.810914 7.3202379,16.026338 4.0308669,5.4211351 3.7525729,4.523954 3.5350637,3.7794276 3.5475135,3.7668826 c 0.012445,-0.014095 0.5309429,0.1071261 1.1522069,0.2669695 1.7805507,0.4569774 3.3731645,0.6092092 5.5018096,0.5257636 1.68485,-0.06625 4.567709,-0.4661395 4.865747,-0.6753173 0.05959,-0.042286 0.08,0 0.04533,0.098669 -0.297565,0.8255757 -0.894083,3.2349264 -1.118297,4.5167747 -0.465294,2.6603922 -0.565102,4.0044022 -0.556042,7.4882562 0.01228,4.744136 0.292133,7.307974 1.881706,17.241945 0.966931,6.042758 0.921234,5.794254 1.038916,5.650057 0.13525,-0.165623 1.541661,-3.629038 1.859985,-4.580346 1.000896,-2.991074 1.685728,-6.960941 1.690344,-9.798514 9.98e-4,-0.606954 0.03629,-0.78484 0.146239,-0.736915 0.07972,0.03524 0.565773,0.168301 1.080126,0.296712 0.733487,0.1831 1.389172,0.232434 3.040053,0.229052 2.006286,0 2.642797,-0.0888 3.849684,-0.511104 0.170396,-0.0592 0.194025,0.02819 0.195171,0.727188 0.0046,2.83264 0.690189,6.804622 1.690343,9.793581 0.318323,0.951308 1.724735,4.414723 1.859985,4.580346 0.117077,0.143493 0.06792,0.411308 1.036916,-5.650057 1.599304,-10.004308 1.872704,-12.505985 1.884242,-17.241945 0.0085,-3.483149 -0.0916,-4.829696 -0.556579,-7.4882562 -0.224213,-1.2818483 -0.820733,-3.691199 -1.118297,-4.5167747 -0.03466,-0.095849 -0.01426,-0.1409554 0.04533,-0.098669 0.298037,0.2091778 3.180898,0.6093502 4.865748,0.6753173 2.128646,0.083164 3.721258,-0.069068 5.50181,-0.5257636 0.621263,-0.1594206 1.141149,-0.2779641 1.155303,-0.2634457 0.01416,0.014095 -0.223255,0.815568 -0.527572,1.7801257 -3.185255,10.0956489 -4.637276,21.1743199 -4.522602,34.5070089 0.02157,2.509148 0.01129,4.562163 -0.02297,4.562163 -0.03422,-1.41e-4 -0.931557,-0.150399 -1.99408,-0.334065 -1.63982,-0.283602 -2.291922,-0.333922 -4.31368,-0.332937 -2.02526,9.87e-4 -2.564244,0.0437 -3.600424,0.282475 -0.670231,0.154769 -1.346688,0.309397 -1.503238,0.34379 l -0.284631,0.06202 -0.130378,-3.150212 c -0.224702,-5.42946 -0.685905,-7.933814 -1.973737,-10.717543 l -0.495839,-1.071825 -1.161848,0 -1.161849,0 -0.347861,0.687863 c -0.872305,1.724871 -1.488532,3.924058 -1.801895,6.430526 -0.08974,0.717745 -0.223399,2.768223 -0.297018,4.556665 l -0.133855,3.251419 -0.283732,-0.0592 c -0.156053,-0.03242 -0.81914,-0.177181 -1.47353,-0.320673 -2.351137,-0.515757 -5.354474,-0.475302 -8.500651,0.114173 -0.7023454,0.131089 -1.3404553,0.24047 -1.4180202,0.242021 -0.1125743,0 -0.1268157,-0.727471 -0.070587,-3.615788 l 0,0 z"
       id="path4396"
       inkscape:connector-curvature="0" />
    <path
       style="opacity:0.98000004;fill:#00ff00;fill-opacity:1;stroke:#000000;stroke-width:0.2;stroke-linecap:round;stroke-linejoin:round;stroke-miterlimit:4;stroke-opacity:1;stroke-dasharray:none;stroke-dashoffset:0;marker-start:none;marker-mid:none;filter:url(#filter8924)"
       d="m 12.417538,26.205887 c -0.229848,-0.7494 -1.525649,-5.655 -2.093472,-7.9255 -1.1866217,-4.7449 -1.3322827,-7.002 -0.7266597,-11.2597003 0.213107,-1.4982 0.4215757,-2.1164 0.7754507,-2.2994 0.167748,-0.087 1.326412,-0.3193 1.370608,-0.2751 0.01122,0.011 -0.119372,0.4347 -0.290217,0.9411 -0.482545,1.4304 -0.901662,3.3255 -1.108199,5.0111003 -0.143717,1.1729 -0.144027,3.5404 -6.43e-4,4.9245 0.259528,2.5053 0.899979,5.7544 2.002074,10.1569 0.172783,0.6902 0.304674,1.2833 0.293091,1.3181 -0.01158,0.035 -0.111497,-0.2317 -0.222032,-0.592 l -10e-7,0 z"
       id="path4422"
       inkscape:connector-curvature="0"
       transform="matrix(1.2407612,0,0,1.409554,-1.5665447,-0.81344662)" />
    <path
       style="opacity:0.98000004;fill:#00ff00;fill-opacity:1;stroke:#000000;stroke-width:0.2;stroke-linecap:round;stroke-linejoin:round;stroke-miterlimit:4;stroke-opacity:1;stroke-dasharray:none;stroke-dashoffset:0;marker-start:none;marker-mid:none;filter:url(#filter8920)"
       d="m 26.928468,26.732087 c -0.0025,-0.045 0.135678,-0.6413 0.307145,-1.3258 1.138338,-4.5444 1.806319,-7.9966 2.030517,-10.4938 0.108602,-1.2096 0.09289,-3.4457 -0.03149,-4.4825 -0.232958,-1.9419003 -0.699195,-3.9937003 -1.245606,-5.4816003 -0.106144,-0.2891 -0.183189,-0.5354 -0.171211,-0.5473 0.01198,-0.012 0.320023,0.031 0.684545,0.097 0.5984,0.1069 0.681467,0.1387 0.8553,0.3273 0.27026,0.2933 0.44305,0.8996 0.625689,2.1956 0.498179,3.5350003 0.459706,5.6625003 -0.157923,8.7329003 -0.4482,2.2282 -2.872211,11.4143 -2.896961,10.9785 l 0,0 z"
       id="path4424"
       inkscape:connector-curvature="0"
       transform="matrix(1.2407612,0,0,1.409554,0.29059821,-0.52773234)" />
  </g>
</svg>
